<svg xmlns="http://www.w3.org/2000/svg">
  <symbol id="blank" viewBox="0 0 44 44">
    <path d="M22,43a6.51,6.51,0,0,1-3.23-.86L6.23,34.87A6.5,6.5,0,0,1,3,29.26V14.74A6.5,6.5,0,0,1,6.23,9.13L18.77,1.86a6.48,6.48,0,0,1,6.46,0L37.77,9.13A6.5,6.5,0,0,1,41,14.74V29.26a6.5,6.5,0,0,1-3.23,5.61L25.23,42.14A6.51,6.51,0,0,1,22,43ZM22,2a5.4,5.4,0,0,0-2.73.73L6.73,10A5.51,5.51,0,0,0,4,14.74V29.26A5.51,5.51,0,0,0,6.73,34l12.54,7.26a5.44,5.44,0,0,0,5.46,0L37.27,34A5.51,5.51,0,0,0,40,29.26V14.74A5.51,5.51,0,0,0,37.27,10L24.73,2.73A5.4,5.4,0,0,0,22,2Z"/>
  </symbol>
  <symbol id="twitter" viewBox="0 0 44 44">
    <title>Twitter</title>
    <path d="M22,43a6.51,6.51,0,0,1-3.23-.86L6.23,34.87A6.5,6.5,0,0,1,3,29.26V14.74A6.5,6.5,0,0,1,6.23,9.13L18.77,1.86a6.48,6.48,0,0,1,6.46,0L37.77,9.13A6.5,6.5,0,0,1,41,14.74V29.26a6.5,6.5,0,0,1-3.23,5.61L25.23,42.14A6.51,6.51,0,0,1,22,43ZM22,2a5.4,5.4,0,0,0-2.73.73L6.73,10A5.51,5.51,0,0,0,4,14.74V29.26A5.51,5.51,0,0,0,6.73,34l12.54,7.26a5.44,5.44,0,0,0,5.46,0L37.27,34A5.51,5.51,0,0,0,40,29.26V14.74A5.51,5.51,0,0,0,37.27,10L24.73,2.73A5.4,5.4,0,0,0,22,2Z"/>
    <path d="M32,15.77,31.1,17a3.57,3.57,0,0,1-1.29,1v.6a8.71,8.71,0,0,1-.62,4.12A12,12,0,0,1,27,26.32a11.77,11.77,0,0,1-8.74,3.82,9.87,9.87,0,0,1-1.71-.1,7.74,7.74,0,0,1-1.61-.4,9.38,9.38,0,0,1-1.5-.6A3,3,0,0,1,12,28h1a4.26,4.26,0,0,0,2.71-.22,6.89,6.89,0,0,0,2.41-1.31,4.1,4.1,0,0,1-2.41-.8,3.56,3.56,0,0,1-1.41-2c.1,0,.2,0,.4.32h1a.86.86,0,0,1,.5-.32,4.25,4.25,0,0,1-2.41-1.41,4,4,0,0,1-.91-2.61h0c.31.1.61.3.91.4s.6.1,1,.2a4.29,4.29,0,0,1-1.3-1.41,4.56,4.56,0,0,1-.5-2,4.1,4.1,0,0,1,.1-1.1,3.05,3.05,0,0,1,.4-1,12.56,12.56,0,0,0,1.71,1.71,13.36,13.36,0,0,0,2,1.31,9.1,9.1,0,0,0,2.31.9,10.13,10.13,0,0,0,2.51.4.9.9,0,0,0-.1-.5c-.1-.2,0-.3,0-.5a4.2,4.2,0,0,1,.3-1.61,3.7,3.7,0,0,1,.91-1.3,3.7,3.7,0,0,1,1.3-.91,4.2,4.2,0,0,1,1.61-.3,3.57,3.57,0,0,1,1.71.4,3.07,3.07,0,0,1,1.31.91,7.41,7.41,0,0,0,1.4-.41c.4-.2.91-.4,1.31-.6a5.46,5.46,0,0,1-.7,1.31,5.56,5.56,0,0,1-1.11,1,5.18,5.18,0,0,0,1.21-.2C31.3,16.07,31.6,16,32,15.77Z"/>
  </symbol>
  <symbol id="github" viewBox="0 0 44 44">
    <title>GitHub</title>
    <path d="M22,43a6.51,6.51,0,0,1-3.23-.86L6.23,34.87A6.5,6.5,0,0,1,3,29.26V14.74A6.5,6.5,0,0,1,6.23,9.13L18.77,1.86a6.48,6.48,0,0,1,6.46,0L37.77,9.13A6.5,6.5,0,0,1,41,14.74V29.26a6.5,6.5,0,0,1-3.23,5.61L25.23,42.14A6.51,6.51,0,0,1,22,43ZM22,2a5.4,5.4,0,0,0-2.73.73L6.73,10A5.51,5.51,0,0,0,4,14.74V29.26A5.51,5.51,0,0,0,6.73,34l12.54,7.26a5.44,5.44,0,0,0,5.46,0L37.27,34A5.51,5.51,0,0,0,40,29.26V14.74A5.51,5.51,0,0,0,37.27,10L24.73,2.73A5.4,5.4,0,0,0,22,2Z"/>
    <path d="M22,12a9.84,9.84,0,0,1,3.9.78,10.06,10.06,0,0,1,3.18,2.14,10.23,10.23,0,0,1,2.14,3.18,10.14,10.14,0,0,1,0,7.8,10.23,10.23,0,0,1-2.14,3.18,10.06,10.06,0,0,1-3.18,2.14,10.14,10.14,0,0,1-7.8,0,10,10,0,0,1-3.18-2.14,10.06,10.06,0,0,1-2.14-3.18,10.14,10.14,0,0,1,0-7.8,10.06,10.06,0,0,1,2.14-3.18,10,10,0,0,1,3.18-2.14A9.84,9.84,0,0,1,22,12Zm5.94,15.94a8.65,8.65,0,0,0,1-1.25,7.24,7.24,0,0,0,.76-1.43,7.26,7.26,0,0,0,.5-1.58,8.39,8.39,0,0,0,0-3.36,7.26,7.26,0,0,0-.5-1.58A7.24,7.24,0,0,0,29,17.31,8.43,8.43,0,0,0,26.69,15a7.53,7.53,0,0,0-1.43-.76,7.26,7.26,0,0,0-1.58-.5,8.39,8.39,0,0,0-3.36,0,7.26,7.26,0,0,0-1.58.5,7.24,7.24,0,0,0-1.43.76A8.43,8.43,0,0,0,15,17.31a7.24,7.24,0,0,0-.76,1.43,7.26,7.26,0,0,0-.5,1.58,8.39,8.39,0,0,0,0,3.36,7.26,7.26,0,0,0,.5,1.58A7.24,7.24,0,0,0,15,26.69,8.43,8.43,0,0,0,17.31,29a7.24,7.24,0,0,0,1.43.76,3.25,3.25,0,0,0,.43.18l.43.14V28.52a2.47,2.47,0,0,1,.2-1,1.8,1.8,0,0,1,.6-.71l-.49-.06-.45-.08c-.13,0-.27-.06-.42-.11l-.48-.15-.44-.17-.4-.22a2.26,2.26,0,0,1-.37-.26A3.69,3.69,0,0,1,17,25.4a3.79,3.79,0,0,1-.32-.38,4,4,0,0,1-.27-.44,5.15,5.15,0,0,1-.2-.52c-.06-.19-.12-.39-.17-.6S16,23,16,22.77a6.06,6.06,0,0,1,0-.75,3.94,3.94,0,0,1,.24-1.39,3.61,3.61,0,0,1,.75-1.19,2.86,2.86,0,0,1-.2-1.2A4.35,4.35,0,0,1,17,16.9l.1,0h.1l.19,0a1.09,1.09,0,0,1,.26,0l.27.07.32.12.42.19.48.27.5.3a8.35,8.35,0,0,1,1.17-.24,10.84,10.84,0,0,1,2.46,0,9.64,9.64,0,0,1,1.19.24,8.5,8.5,0,0,1,.78-.47q.38-.19.69-.33a4.11,4.11,0,0,1,.56-.17,1.23,1.23,0,0,1,.35,0l.26,0a3.89,3.89,0,0,1,.29,1.33,3.37,3.37,0,0,1-.19,1.23,3.77,3.77,0,0,1,.73,1.17A4,4,0,0,1,28.17,22c0,.25,0,.49,0,.73a5,5,0,0,1-.1.69,5.25,5.25,0,0,1-.16.6,5.08,5.08,0,0,1-.22.52,2.82,2.82,0,0,1-.26.44,3.79,3.79,0,0,1-.32.38,2.73,2.73,0,0,1-.34.34,2.86,2.86,0,0,1-.38.26,3,3,0,0,1-.4.22l-.44.17-.46.15a4,4,0,0,1-.44.11l-.45.08-.49.06a1.68,1.68,0,0,1,.61.71,2.32,2.32,0,0,1,.21,1V30l.39-.14.37-.16A7.53,7.53,0,0,0,26.69,29,8.65,8.65,0,0,0,27.94,27.94Z"/>
  </symbol>
  <symbol id="codepen" viewBox="0 0 44 44">
    <title>Codepen</title>
    <path d="M22,43a6.51,6.51,0,0,1-3.23-.86L6.23,34.87A6.5,6.5,0,0,1,3,29.26V14.74A6.5,6.5,0,0,1,6.23,9.13L18.77,1.86a6.48,6.48,0,0,1,6.46,0L37.77,9.13A6.5,6.5,0,0,1,41,14.74V29.26a6.5,6.5,0,0,1-3.23,5.61L25.23,42.14A6.51,6.51,0,0,1,22,43ZM22,2a5.4,5.4,0,0,0-2.73.73L6.73,10A5.51,5.51,0,0,0,4,14.74V29.26A5.51,5.51,0,0,0,6.73,34l12.54,7.26a5.44,5.44,0,0,0,5.46,0L37.27,34A5.51,5.51,0,0,0,40,29.26V14.74A5.51,5.51,0,0,0,37.27,10L24.73,2.73A5.4,5.4,0,0,0,22,2Z"/>
    <path d="M32,19a.68.68,0,0,0,0-.14.13.13,0,0,0,0-.06.75.75,0,0,0-.13-.32,0,0,0,0,0,0,0s0,0,0,0a.78.78,0,0,0-.24-.24h0l-9-6a.24.24,0,0,0-.1-.05l-.1,0a1.05,1.05,0,0,0-.7,0l-.1,0a.24.24,0,0,0-.1.05l-9,6h0a.78.78,0,0,0-.24.24s0,0,0,0a0,0,0,0,0,0,0,.75.75,0,0,0-.13.32.13.13,0,0,0,0,.06A.68.68,0,0,0,12,19V25a.68.68,0,0,0,0,.14.15.15,0,0,0,0,.07.85.85,0,0,0,.13.31.06.06,0,0,0,0,0l0,0a1.14,1.14,0,0,0,.25.24h0l9,6a.24.24,0,0,0,.1.05l.1.05a.91.91,0,0,0,.7,0l.1-.05a.24.24,0,0,0,.1-.05l9-6,.05,0,.1-.09.08-.09s0,0,0-.05a.06.06,0,0,0,0,0,.85.85,0,0,0,.13-.31.15.15,0,0,0,0-.07A.68.68,0,0,0,32,25ZM14,20.84,15.73,22,14,23.15Zm8,2.91L19.33,22,22,20.18,24.67,22Zm1-5.31V14.86L29.19,19l-2.72,1.81Zm-2,0-3.47,2.34L14.81,19,21,14.86Zm-3.47,4.74L21,25.48v3.66L14.8,25ZM23,25.48l3.47-2.3L29.2,25,23,29.14ZM28.27,22,30,20.84v2.31Z"/>
  </symbol>
  <symbol id="dribbble" viewBox="0 0 44 44">
    <title>Dribbble</title>
    <path d="M22,43a6.51,6.51,0,0,1-3.23-.86L6.23,34.87A6.5,6.5,0,0,1,3,29.26V14.74A6.5,6.5,0,0,1,6.23,9.13L18.77,1.86a6.48,6.48,0,0,1,6.46,0L37.77,9.13A6.5,6.5,0,0,1,41,14.74V29.26a6.5,6.5,0,0,1-3.23,5.61L25.23,42.14A6.51,6.51,0,0,1,22,43ZM22,2a5.4,5.4,0,0,0-2.73.73L6.73,10A5.51,5.51,0,0,0,4,14.74V29.26A5.51,5.51,0,0,0,6.73,34l12.54,7.26a5.44,5.44,0,0,0,5.46,0L37.27,34A5.51,5.51,0,0,0,40,29.26V14.74A5.51,5.51,0,0,0,37.27,10L24.73,2.73A5.4,5.4,0,0,0,22,2Z"/>
    <path d="M22,32A10,10,0,1,1,32,22,10,10,0,0,1,22,32Zm8.43-8.63A12.68,12.68,0,0,0,25.11,23a36.85,36.85,0,0,1,1.66,6.09,8.51,8.51,0,0,0,3.66-5.72Zm-5.09,6.51a35.83,35.83,0,0,0-1.83-6.48l-.05,0a11.7,11.7,0,0,0-6.7,5.33A8.5,8.5,0,0,0,22,30.55a8.66,8.66,0,0,0,3.34-.67Zm-9.69-2.16a13.58,13.58,0,0,1,7-5.63l.33-.1c-.21-.49-.44-1-.69-1.45a31.54,31.54,0,0,1-8.78,1.21V22a8.5,8.5,0,0,0,2.19,5.71Zm-2-7.46a31.68,31.68,0,0,0,7.9-1,57.91,57.91,0,0,0-3.17-4.94,8.57,8.57,0,0,0-4.73,6ZM20,13.71a47.09,47.09,0,0,1,3.19,5,9.62,9.62,0,0,0,4.47-3.09A8.54,8.54,0,0,0,22,13.47a8.24,8.24,0,0,0-2,.24Zm8.61,2.9A11.3,11.3,0,0,1,23.84,20c.2.41.39.82.57,1.24l.18.44a20,20,0,0,1,5.95.27,8.53,8.53,0,0,0-1.93-5.32Z"/>
  </symbol>
  <symbol id="facebook" viewBox="0 0 44 44">
    <title>Facebook</title>
    <path d="M22,43a6.51,6.51,0,0,1-3.23-.86L6.23,34.87A6.5,6.5,0,0,1,3,29.26V14.74A6.5,6.5,0,0,1,6.23,9.13L18.77,1.86a6.48,6.48,0,0,1,6.46,0L37.77,9.13A6.5,6.5,0,0,1,41,14.74V29.26a6.5,6.5,0,0,1-3.23,5.61L25.23,42.14A6.51,6.51,0,0,1,22,43ZM22,2a5.4,5.4,0,0,0-2.73.73L6.73,10A5.51,5.51,0,0,0,4,14.74V29.26A5.51,5.51,0,0,0,6.73,34l12.54,7.26a5.44,5.44,0,0,0,5.46,0L37.27,34A5.51,5.51,0,0,0,40,29.26V14.74A5.51,5.51,0,0,0,37.27,10L24.73,2.73A5.4,5.4,0,0,0,22,2Z"/>
    <path d="M30,13H14a1,1,0,0,0-1,1V30a1,1,0,0,0,1,1h8.63V24H20.28V21.31h2.34v-2a3.27,3.27,0,0,1,3.5-3.59c.69,0,1.39,0,2.09.1v2.43H26.78c-1.13,0-1.35.54-1.35,1.33v1.73h2.7L27.78,24H25.41v7H30a1,1,0,0,0,1-1h0V14a1,1,0,0,0-1-1Z"/>
  </symbol>
  <symbol id="apple" viewBox="0 0 44 44">
    <title>Apple</title>
    <path d="M22,43a6.51,6.51,0,0,1-3.23-.86L6.23,34.87A6.5,6.5,0,0,1,3,29.26V14.74A6.5,6.5,0,0,1,6.23,9.13L18.77,1.86a6.48,6.48,0,0,1,6.46,0L37.77,9.13A6.5,6.5,0,0,1,41,14.74V29.26a6.5,6.5,0,0,1-3.23,5.61L25.23,42.14A6.51,6.51,0,0,1,22,43ZM22,2a5.4,5.4,0,0,0-2.73.73L6.73,10A5.51,5.51,0,0,0,4,14.74V29.26A5.51,5.51,0,0,0,6.73,34l12.54,7.26a5.44,5.44,0,0,0,5.46,0L37.27,34A5.51,5.51,0,0,0,40,29.26V14.74A5.51,5.51,0,0,0,37.27,10L24.73,2.73A5.4,5.4,0,0,0,22,2Z"/>
    <path d="M29.57,26.59a10.65,10.65,0,0,1-1.08,1.93,9.25,9.25,0,0,1-1.38,1.67,2.72,2.72,0,0,1-1.78.79,4.28,4.28,0,0,1-1.64-.4,4.83,4.83,0,0,0-1.78-.39,4.93,4.93,0,0,0-1.82.39,4.91,4.91,0,0,1-1.57.42,2.54,2.54,0,0,1-1.82-.81,9.8,9.8,0,0,1-1.45-1.73,12,12,0,0,1-1.53-3,11.12,11.12,0,0,1-.64-3.63A6.58,6.58,0,0,1,14,18.33a5,5,0,0,1,1.82-1.85,4.86,4.86,0,0,1,2.46-.69,5.93,5.93,0,0,1,1.91.44,6,6,0,0,0,1.51.45,9.38,9.38,0,0,0,1.67-.53,5.48,5.48,0,0,1,2.28-.4,4.84,4.84,0,0,1,3.79,2,4.37,4.37,0,0,0-.85,7,4.66,4.66,0,0,0,1.38.91c-.11.32-.23.63-.35.93ZM25.71,11.4a4.27,4.27,0,0,1-1.09,2.8,3.73,3.73,0,0,1-3.1,1.53c0-.12,0-.25,0-.38a4.56,4.56,0,0,1,2.57-3.89A4.25,4.25,0,0,1,25.69,11c0,.13,0,.27,0,.4Z"/>
  </symbol>
  <symbol id="web" viewBox="0 0 44 44">
    <title>Web</title>
    <path d="M22,43a6.51,6.51,0,0,1-3.23-.86L6.23,34.87A6.5,6.5,0,0,1,3,29.26V14.74A6.5,6.5,0,0,1,6.23,9.13L18.77,1.86a6.48,6.48,0,0,1,6.46,0L37.77,9.13A6.5,6.5,0,0,1,41,14.74V29.26a6.5,6.5,0,0,1-3.23,5.61L25.23,42.14A6.51,6.51,0,0,1,22,43ZM22,2a5.4,5.4,0,0,0-2.73.73L6.73,10A5.51,5.51,0,0,0,4,14.74V29.26A5.51,5.51,0,0,0,6.73,34l12.54,7.26a5.44,5.44,0,0,0,5.46,0L37.27,34A5.51,5.51,0,0,0,40,29.26V14.74A5.51,5.51,0,0,0,37.27,10L24.73,2.73A5.4,5.4,0,0,0,22,2Z"/>
    <path d="M31.35,12.65a.49.49,0,0,0-.62-.07l-11,7a.54.54,0,0,0-.15.15l-7,11a.49.49,0,0,0,.07.62.47.47,0,0,0,.35.15.53.53,0,0,0,.27-.08l11-7a.54.54,0,0,0,.15-.15l7-11A.49.49,0,0,0,31.35,12.65ZM14.63,29.37l5.73-9,3.28,3.28Z"/>
  </symbol>
</svg>
